<svg id="Layer_1" data-name="Layer 1" xmlns="http://www.w3.org/2000/svg" viewBox="0 0 182.72 104.4"><defs><style>.cls-1{fill:#d6d9e8;}.cls-2{fill:#b0b7d4;}.cls-3{fill:#285598;}.cls-4{fill:#8695c0;}</style></defs><path class="cls-1" d="M58.69,107.2h-8c-.29,0-.4-.12-.29-.42.27-.7.53-1.41.8-2.13s.53-1.46.79-2.19c.37-1,.71-2,1.13-3,.34-.79.58-1.63.86-2.45.39-1.11.85-2.19,1.22-3.31s.63-2,1-2.91c.55-1.34,1-2.71,1.5-4.06S58.6,84.2,59,83c.32-1,.67-1.94,1.08-2.88.33-.78.56-1.6.85-2.4.41-1.12.87-2.22,1.25-3.36S63,72,63.44,70.79c.63-1.73,1.23-3.47,1.88-5.19.32-.86.64-1.73.92-2.61.16-.49.34-.59,1-.59H79c.52,0,.52,0,.44.59-.13.84-.49,1.62-.7,2.44-.52,2-1.12,4-1.64,6-.44,1.71-1,3.4-1.41,5.11s-1,3.48-1.46,5.22-1,3.51-1.46,5.27c-.6,2.23-1.29,4.43-1.86,6.67-.43,1.7-.92,3.38-1.42,5.06-.31,1.07-.56,2.16-.92,3.23s-.54,2-.81,3.08c-.16.59-.35,1.18-.5,1.78a.48.48,0,0,1-.47.38h-8.1Z" transform="translate(-8.64 -2.8)"/><path class="cls-2" d="M32.39,84.16c1.09-1.68,2-3.33,3-4.89.43-.65.78-1.35,1.21-2,.59-.87,1-1.81,1.65-2.68s.94-1.54,1.4-2.31l1.92-3.14c.69-1.14,1.39-2.27,2.1-3.41s1.36-2.26,2-3.38c1.22-2,2.46-3.94,3.66-5.94a1.41,1.41,0,0,1,1.39-.79c3.37,0,6.74,0,10.11,0a1.55,1.55,0,0,1,.64.05c.12.17,0,.31,0,.45-.56,1.15-1.15,2.29-1.68,3.46-.7,1.5-1.47,3-2.2,4.47-.32.66-.6,1.35-.92,2-.59,1.22-1.24,2.41-1.78,3.64s-1.1,2.27-1.64,3.41c-.7,1.49-1.37,3-2.15,4.44-.32.61-.54,1.26-.85,1.88-.67,1.33-1.31,2.69-2,4a1,1,0,0,1-1.1.66c-4.64,0-9.28,0-13.92,0Z" transform="translate(-8.64 -2.8)"/><path class="cls-3" d="M105.29,78a15.45,15.45,0,0,1,.85-5.76,15,15,0,0,1,4.2-6.43,16.53,16.53,0,0,1,7.54-3.86,18.7,18.7,0,0,1,11.42.91A14.09,14.09,0,0,1,135.56,68a15.17,15.17,0,0,1,2.3,6,20.51,20.51,0,0,1,.27,3.4,18.58,18.58,0,0,1-.53,4.5,15.33,15.33,0,0,1-3.09,6.21,15,15,0,0,1-5.65,4.21,18.78,18.78,0,0,1-4.79,1.34,24.25,24.25,0,0,1-5,.05,16.84,16.84,0,0,1-5.17-1.33,14,14,0,0,1-3.61-2.27,13.58,13.58,0,0,1-3.52-4.75,17.23,17.23,0,0,1-1.35-5C105.27,79.63,105.32,78.8,105.29,78Zm27.72.45a18.36,18.36,0,0,0-.38-4.32,17.54,17.54,0,0,0-1.72-4.95,11.29,11.29,0,0,0-4.85-4.94,10.53,10.53,0,0,0-6.49-.92A9.51,9.51,0,0,0,113,67.35a15.29,15.29,0,0,0-2.67,8.13,22.07,22.07,0,0,0,.17,4.87,17.89,17.89,0,0,0,1.92,6.06,10.91,10.91,0,0,0,3.64,4,11.1,11.1,0,0,0,7.84,1.63,9.29,9.29,0,0,0,3.71-1.29,10.61,10.61,0,0,0,4.32-5.6A17.74,17.74,0,0,0,133,78.42Z" transform="translate(-8.64 -2.8)"/><path class="cls-3" d="M145.46,57.1a16.82,16.82,0,0,1-6.7-1.17,12.66,12.66,0,0,1-7.45-7.85,16.38,16.38,0,0,1-.81-3.86,17.27,17.27,0,0,1-.08-2.49,14.57,14.57,0,0,1,3.15-8.88,15,15,0,0,1,9-5.37,16.47,16.47,0,0,1,4.37-.33,16,16,0,0,1,7.5,2.26,12.81,12.81,0,0,1,5.24,6.37A18.25,18.25,0,0,1,160,46.89a13.69,13.69,0,0,1-2.68,5,14.79,14.79,0,0,1-9,5A11.63,11.63,0,0,1,145.46,57.1ZM135.14,41.62a15.42,15.42,0,0,0,.21,3.3,14.91,14.91,0,0,0,2.45,6.42A9.63,9.63,0,0,0,142,54.73a10.39,10.39,0,0,0,5.41.7,8.58,8.58,0,0,0,6.3-3.78,14.9,14.9,0,0,0,2.35-7.84,19.52,19.52,0,0,0-.44-5.22,13.31,13.31,0,0,0-4.31-7.76,8.84,8.84,0,0,0-3.19-1.69,9.81,9.81,0,0,0-4.07-.34,9.66,9.66,0,0,0-3.25,1,10.4,10.4,0,0,0-4.92,6.28A15.63,15.63,0,0,0,135.14,41.62Z" transform="translate(-8.64 -2.8)"/><path class="cls-3" d="M164.82,27.38c.87,1,1.71,2.05,2.58,3,.7.81,1.41,1.6,2.14,2.38,1.17,1.23,2.31,2.49,3.48,3.72s2.39,2.52,3.58,3.79,2.27,2.28,3.35,3.47c1.79,2,3.73,3.75,5.57,5.65a.18.18,0,0,0,.19.09c.11-.16,0-.34,0-.51q0-8.22,0-16.42a8.87,8.87,0,0,0-.23-2c-.26-1.12-.88-1.4-2-1.56q-.65-.09-1.29-.12c-.46,0-.36-.36-.38-.64s.06-.51.41-.49a2.43,2.43,0,0,0,.27,0h8.16c.64,0,.68.06.67.68,0,.32-.14.46-.46.45s-.86.11-1.29.13a1.59,1.59,0,0,0-1.39,1.39,13.6,13.6,0,0,0-.25,2.21c-.23,7.71,0,15.43-.1,23.14a.89.89,0,0,1-.89,1c-.23,0-.34-.11-.45-.23-1.5-1.65-3.07-3.23-4.6-4.84-1-1.06-2-2.06-3-3.12-1.33-1.43-2.69-2.83-4-4.25l-3.69-3.9c-1.31-1.38-2.59-2.78-3.91-4.14-.43-.44-.82-.91-1.27-1.34-.16.12-.1.28-.1.41q0,8.43,0,16.85a5.93,5.93,0,0,0,.26,1.66,1.74,1.74,0,0,0,1.6,1.26,6.42,6.42,0,0,0,1.45.13c.39,0,.5.17.49.53,0,.52,0,.58-.47.59h-8.37c-.63,0-.72-.11-.66-.73,0-.27.14-.4.41-.39A7.61,7.61,0,0,0,162,55.2a1.51,1.51,0,0,0,1.29-1,7.63,7.63,0,0,0,.43-2.55V28.79c0-.16,0-.32,0-.48a.55.55,0,0,1,.42-.66Z" transform="translate(-8.64 -2.8)"/><path class="cls-3" d="M146.66,93.74a19.29,19.29,0,0,1-4.42-.33A5.39,5.39,0,0,1,141,93a1.6,1.6,0,0,1-.92-1.48c-.05-1.34-.17-2.67-.25-4a10.08,10.08,0,0,0-.17-2,.57.57,0,0,1,.13-.65,1.44,1.44,0,0,1,1.11-.07.66.66,0,0,1,.2.48,11.2,11.2,0,0,0,1.16,3.65,6,6,0,0,0,4,2.93A8.91,8.91,0,0,0,150,92a5.08,5.08,0,0,0,4.18-4.16A6,6,0,0,0,153,82.72a10.18,10.18,0,0,0-3.4-2.72c-1.73-.9-3.49-1.76-5.15-2.78a9.06,9.06,0,0,1-4.54-6.49,7.36,7.36,0,0,1,4.67-8.32,12.39,12.39,0,0,1,4.59-.91,15.55,15.55,0,0,1,5,.67c.48.15,1,.35,1.41.54s.59.76.64,1.23a36.9,36.9,0,0,1,.23,5c0,.27.08.59-.39.62-.71.05-.84,0-1-.55a12.1,12.1,0,0,0-1-2.93,5,5,0,0,0-3-2.6,6,6,0,0,0-4.4.1,4.85,4.85,0,0,0-2.88,4.2,5.16,5.16,0,0,0,2.25,4.5,32.4,32.4,0,0,0,4.41,2.74,31.67,31.67,0,0,1,4.5,2.81,8.41,8.41,0,0,1,3.3,5.55,8.86,8.86,0,0,1-1,5.86,7.67,7.67,0,0,1-2.66,2.65,12.93,12.93,0,0,1-5.15,1.72C148.5,93.77,147.58,93.69,146.66,93.74Z" transform="translate(-8.64 -2.8)"/><path class="cls-3" d="M159.4,84.84l.34-.09c.86-.23,1-.09,1.17.78a9.23,9.23,0,0,0,1.35,3.8,6,6,0,0,0,3.81,2.49,9.28,9.28,0,0,0,3.71.14,4.92,4.92,0,0,0,4-3.54,6,6,0,0,0-1.16-5.79,10.54,10.54,0,0,0-3.06-2.49c-1.82-1-3.73-1.84-5.48-3a9,9,0,0,1-4.48-6.42,7.46,7.46,0,0,1,1.42-6,8.74,8.74,0,0,1,4.62-2.88,14.5,14.5,0,0,1,4.9-.4,12.86,12.86,0,0,1,4.71,1.17,1.06,1.06,0,0,1,.64.91,14.91,14.91,0,0,1,.2,2c0,1.15.21,2.31.14,3.47,0,.48-.05.51-.54.52a2.44,2.44,0,0,0-.27,0c-.4.06-.55-.15-.61-.51s-.16-.78-.26-1.16a6.44,6.44,0,0,0-2.13-3.57,5,5,0,0,0-2.14-1,6,6,0,0,0-4.17.41A4.93,4.93,0,0,0,164.49,71a10.26,10.26,0,0,0,3,2.45c1.72,1,3.49,2,5.21,3a11.53,11.53,0,0,1,4.22,3.81,8.51,8.51,0,0,1,1.16,4.08,9.19,9.19,0,0,1-.27,2.9,7.82,7.82,0,0,1-3.38,4.56,12.21,12.21,0,0,1-4.33,1.66,26.25,26.25,0,0,1-5.74.19,8.46,8.46,0,0,1-3.39-.62,1.59,1.59,0,0,1-1.11-1.49c-.05-1-.14-2.09-.21-3.14S159.49,86.09,159.4,84.84Z" transform="translate(-8.64 -2.8)"/><path class="cls-3" d="M104.59,87c.06,0,.08,0,.1,0,1.1,0,1.23.07,1.17,1.16s-.18,2-.29,3.07a6.1,6.1,0,0,1-.11,1.13,1.19,1.19,0,0,1-1.06.87,3.35,3.35,0,0,1-.55,0H84.34c-.64,0-.9-.42-.67-1,.08-.2.24-.21.4-.2a11,11,0,0,0,1.62-.13A1.25,1.25,0,0,0,87,90.65,14.62,14.62,0,0,0,87.22,88q0-10.33,0-20.66A12.85,12.85,0,0,0,87,64.66c-.2-.86-.47-1.06-1.33-1.16-.47,0-.94-.1-1.41-.11a.69.69,0,0,1-.58-1,.27.27,0,0,1,.26-.17h11.3c.57,0,.61,0,.62.56s-.1.68-.62.67a10,10,0,0,0-1.45.13c-.8.08-1.23.59-1.29,1.54S92.38,67,92.38,68c0,7,0,13.92,0,20.87a3.39,3.39,0,0,0,.52,2,1.24,1.24,0,0,0,.85.54,27.34,27.34,0,0,0,5.35.33,14.67,14.67,0,0,0,2.79-.34,2.65,2.65,0,0,0,2-1.82C104.2,88.73,104.32,87.85,104.59,87Z" transform="translate(-8.64 -2.8)"/><path class="cls-4" d="M47.78,50.47c-.13.52-.54.75-.84,1-.88.83-1.64,1.77-2.48,2.63-1.27,1.29-2.49,2.62-3.74,3.93-.58.6-1.21,1.15-1.75,1.78C38,61,36.84,62,35.88,63.11A7.23,7.23,0,0,1,35,64c-.63.56-1.13,1.23-1.7,1.83a1.15,1.15,0,0,1-.91.38H19.79c-.16,0-.33,0-.47-.09a.31.31,0,0,1,.18-.36c.49-.34.84-.85,1.31-1.2s1-.89,1.48-1.33c.66-.6,1.3-1.22,2-1.8,1.42-1.23,2.75-2.55,4.18-3.76.59-.5,1.13-1.06,1.69-1.59L32,54.39l1.85-1.67,2.26-2a1,1,0,0,1,.69-.26H47.51Z" transform="translate(-8.64 -2.8)"/><path class="cls-3" d="M73,50.63l1-2.41q1.94-4.92,3.86-9.85c.84-2.17,1.65-4.36,2.41-6.56.12-.36.23-.72.32-1.09a1,1,0,0,0-.68-1.34,6.82,6.82,0,0,0-1.8-.34l-.64-.1c-.32,0-.42-.19-.42-.5,0-.58,0-.64.64-.65h8.26c.28,0,.59-.05.61.41s0,.76-.53.81a3.24,3.24,0,0,0-2.69,2.06c-.74,1.53-1.33,3.13-2,4.67-.88,1.9-1.66,3.85-2.46,5.79q-2,4.8-4,9.62c-.66,1.61-1.32,3.21-2,4.83a1.31,1.31,0,0,1-.8.81c-1,.37-.89.54-1.32-.55-1.27-3.18-2.56-6.34-3.83-9.51l-3.39-8.45c-1-2.5-2-5-3-7.5A2.45,2.45,0,0,0,59,29.12a10.17,10.17,0,0,0-1.23-.2c-.43-.06-.46-.13-.46-.67,0-.36.17-.46.5-.46q4.95,0,9.89,0c.35,0,.54.09.54.49s0,.59-.48.65-1.07.15-1.61.21a2,2,0,0,0-.66.23.72.72,0,0,0-.42,1,23.75,23.75,0,0,0,1,2.6l2.76,7.13q1.35,3.47,2.69,6.92l1.23,3.19A.85.85,0,0,0,73,50.63Z" transform="translate(-8.64 -2.8)"/><path class="cls-3" d="M107.72,57.09a17.63,17.63,0,0,1-4.76-.43,2.92,2.92,0,0,1-1-.45,1.85,1.85,0,0,1-.6-1.56c-.06-1.36-.18-2.71-.25-4.06,0-.5-.06-1-.1-1.51,0-.26.1-.36.34-.4.73-.13.9,0,1,.75a9.61,9.61,0,0,0,1,3.18,5.38,5.38,0,0,0,3.31,2.55,7.72,7.72,0,0,0,4.54.08,4.57,4.57,0,0,0,3.21-3.76,5.49,5.49,0,0,0-1.63-5.14,11.49,11.49,0,0,0-3.06-2.21,43.16,43.16,0,0,1-5-2.8,8,8,0,0,1-3.45-4.78c-.74-3.29.2-6.52,3.54-8.22a10.8,10.8,0,0,1,3.94-1.11A14,14,0,0,1,115,28c1.29.45,1.33.48,1.44,1.79a41.69,41.69,0,0,1,.24,4.32c0,.32,0,.62-.45.63s-.81,0-.89-.52a10,10,0,0,0-.63-2.19,5,5,0,0,0-4.17-3.19,5.51,5.51,0,0,0-2.82.3,4.47,4.47,0,0,0-2.82,4.29,4.67,4.67,0,0,0,1.93,3.7A30.3,30.3,0,0,0,111,39.73a31.7,31.7,0,0,1,4,2.48,8.22,8.22,0,0,1,1.89,11.33,7.74,7.74,0,0,1-3,2.37A13.17,13.17,0,0,1,107.72,57.09Z" transform="translate(-8.64 -2.8)"/><path class="cls-3" d="M124.74,27.79h4.68a.62.62,0,0,1,.56,1c-.1.19-.27.14-.43.17-.55.12-1.11.09-1.66.2a1,1,0,0,0-.89.9,6,6,0,0,0-.14,1.13V53.22a2.47,2.47,0,0,0,0,.54c.25,1.25.35,1.32,1.62,1.45a7.74,7.74,0,0,0,1.07.1c.46,0,.41.31.42.6s-.05.55-.44.52H120c-.48,0-.53-.06-.53-.54s0-.59.54-.58.93-.11,1.4-.13a1.06,1.06,0,0,0,1-.86,3.93,3.93,0,0,0,.16-1c.23-6.59,0-13.19.11-19.78,0-1-.16-2-.13-3a2.57,2.57,0,0,0-.21-.89c-.19-.55-.71-.6-1.16-.65s-.86-.13-1.29-.14-.47-.09-.48-.6c0-.35.09-.53.49-.53C121.52,27.8,123.13,27.79,124.74,27.79Z" transform="translate(-8.64 -2.8)"/><path class="cls-3" d="M93.3,27.79H98a.61.61,0,0,1,.58.94.29.29,0,0,1-.3.18c-.42,0-.82.11-1.24.13-1.13.06-1.31.39-1.48,1.29a6.17,6.17,0,0,0-.1,1.13V52.93a7.35,7.35,0,0,0,.13,1.24,1.18,1.18,0,0,0,1.22,1,13.25,13.25,0,0,0,1.4.13c.41,0,.41.26.41.55s0,.57-.41.56H88.62c-.57,0-.62,0-.62-.55s0-.58.55-.56A11.84,11.84,0,0,0,90,55.17a1.26,1.26,0,0,0,1.12-1.38c0-.74.14-1.47.14-2.22,0-6.44,0-12.89,0-19.34a14.57,14.57,0,0,0-.18-2c-.15-1-.56-1.09-1.36-1.19a7.83,7.83,0,0,0-1.29-.13c-.45,0-.41-.28-.42-.58s0-.56.46-.55c.64,0,1.27,0,1.91,0Z" transform="translate(-8.64 -2.8)"/><path class="cls-3" d="M33.23,46.13a.7.7,0,0,1-.34.44l-3.2,2.67L26.2,52.15l-3.07,2.58c-1,.83-2,1.68-3,2.51a1.1,1.1,0,0,1-.74.28H8.86a1.2,1.2,0,0,1-.2,0c-.07-.23.13-.25.23-.32l4-2.89,7.83-5.62c1-.72,2-1.44,3-2.17A2.11,2.11,0,0,1,25,46.05c2.55,0,5.11,0,7.66,0A1.3,1.3,0,0,1,33.23,46.13Z" transform="translate(-8.64 -2.8)"/><path class="cls-3" d="M64.53,22.07a9.75,9.75,0,0,1-5.67-1.5A8.5,8.5,0,0,1,55,14.4a9.94,9.94,0,0,1,.32-4.93A8.82,8.82,0,0,1,59,4.9a10.69,10.69,0,0,1,3.87-1.5,11.75,11.75,0,0,1,4.5.2c1,.22,1.92.53,2.87.83a.69.69,0,0,1,.53.7c.08.77,0,1.55.18,2.32a3.51,3.51,0,0,1,0,.65c0,.2-.07.35-.3.37s-.44,0-.51-.28a6,6,0,0,0-.23-.83,4.51,4.51,0,0,0-3.68-3,7.12,7.12,0,0,0-8.44,5.75,9.9,9.9,0,0,0,.72,6.35A7.76,7.76,0,0,0,64,21a5.06,5.06,0,0,0,4.75-1.35,4.9,4.9,0,0,0,1.42-2.45c.06-.24.07-.54.45-.47s.39.34.35.63c-.15.95-.31,1.89-.44,2.84a1,1,0,0,1-.72.84A14.76,14.76,0,0,1,64.53,22.07Z" transform="translate(-8.64 -2.8)"/><path class="cls-3" d="M85.52,10.5c.39.53.12,1.07.29,1.58a3,3,0,0,0,.84-.5,5.46,5.46,0,0,1,2.76-1.05,2.68,2.68,0,0,1,3.2,2.71c.21,2.26,0,4.52.1,6.78,0,.73.17.9.89.92H94c.29,0,.37.17.36.43s-.11.37-.36.37a7.08,7.08,0,0,1-1,0,10.54,10.54,0,0,0-3,0,4,4,0,0,1-.6,0c-.26,0-.34-.14-.35-.38S89,21,89.3,21h.54c.48,0,.66-.18.74-.64a2.58,2.58,0,0,0,0-.48V14.16A1.93,1.93,0,0,0,88.86,12a2.3,2.3,0,0,0-1.17.14,8.9,8.9,0,0,0-1.62.77.58.58,0,0,0-.32.57c0,2.25,0,4.5,0,6.74a.63.63,0,0,0,.64.72c.2,0,.4,0,.6,0s.39.13.39.4-.11.41-.39.4c-.45,0-.89,0-1.35-.06a9,9,0,0,0-2.43,0,5.07,5.07,0,0,1-.87,0c-.27,0-.32-.19-.32-.41s.06-.36.29-.37l.6,0a.62.62,0,0,0,.7-.6,2.46,2.46,0,0,0,0-.54c0-1.91,0-3.81,0-5.71a1.43,1.43,0,0,0-1-1.58.92.92,0,0,1-.29-.16.42.42,0,0,1,.11-.74C83.51,11.26,84.52,10.93,85.52,10.5Z" transform="translate(-8.64 -2.8)"/><path class="cls-3" d="M128.82,8.73v1.69c0,.49,0,.51.53.52h2c.5,0,.54.05.55.57,0,.88,0,.88-.83.88h-1.69c-.49,0-.52,0-.52.53V20.2c0,.57.12.69.7.73.36,0,.72,0,1.09,0s.38.14.38.41-.13.38-.4.4c-.49,0-1-.1-1.46-.1a17.91,17.91,0,0,0-3.19.08,4.49,4.49,0,0,1-.82,0c-.29,0-.37-.16-.36-.42s.11-.37.36-.37h.65c.64,0,.93-.3.94-.94,0-.89,0-1.78,0-2.66V13c0-.65,0-.65-.67-.65h-.71c-.15,0-.29,0-.33-.2a.38.38,0,0,1,.14-.44c.19-.13.4-.25.6-.36a1.57,1.57,0,0,0,1-1.59,10.18,10.18,0,0,1,.36-3.38A4.51,4.51,0,0,1,130.59,3a5.59,5.59,0,0,1,2.51-.11,1.84,1.84,0,0,1,1.6,1.66.64.64,0,0,1-.55.69c-.64.16-1.22.1-1.41-.58-.14-.52-.62-.63-1.09-.64a2.54,2.54,0,0,0-2.72,2.27,3.29,3.29,0,0,0-.1.53c0,.64,0,1.27,0,1.9Z" transform="translate(-8.64 -2.8)"/><path class="cls-3" d="M137.36,22.07a5.6,5.6,0,0,1-5.86-5.66,5.58,5.58,0,0,1,5.63-5.89c3.54,0,5.84,2.17,5.94,5.61A5.68,5.68,0,0,1,137.36,22.07Zm-3.44-6.3a6.83,6.83,0,0,0,1.33,4.41,2.69,2.69,0,0,0,4.48-.21,6.3,6.3,0,0,0,.91-4.19,5.86,5.86,0,0,0-1.77-3.8,2.6,2.6,0,0,0-3.78.35A5.5,5.5,0,0,0,133.92,15.77Z" transform="translate(-8.64 -2.8)"/><path class="cls-3" d="M110.28,18.89c.51.37.5.41.18.82a6.83,6.83,0,0,1-2.27,1.9,4.41,4.41,0,0,1-6.25-2.51,7,7,0,0,1,1-6.83,4.47,4.47,0,0,1,2.89-1.67,4.16,4.16,0,0,1,4.29,1.77,4.1,4.1,0,0,1,.56,2.07c0,.45-.13.56-.66.56H103.9a.28.28,0,0,0-.31.3,5.27,5.27,0,0,0,1.15,4,3.08,3.08,0,0,0,4.29.55A10.34,10.34,0,0,0,110.28,18.89ZM103.76,14s.06.06.09.06c1.35.06,2.71,0,4.06,0a.4.4,0,0,0,.41-.42,1.92,1.92,0,0,0-2.07-2.21A2.72,2.72,0,0,0,103.76,14Z" transform="translate(-8.64 -2.8)"/><path class="cls-3" d="M77.87,15h-3c-.48,0-.54.06-.54.52a5.73,5.73,0,0,0,.88,3.36,3.3,3.3,0,0,0,2.42,1.59,3.62,3.62,0,0,0,2-.5c.46-.25.82-.64,1.26-.93.13-.1.26-.2.43,0a.33.33,0,0,1,.05.48c-1.1,1.41-2.35,2.55-4.29,2.59a4.26,4.26,0,0,1-3.46-1.39,5.48,5.48,0,0,1-1.29-3.16,8.06,8.06,0,0,1,.52-3.94,4.87,4.87,0,0,1,4.58-3.07,4.05,4.05,0,0,1,3.41,1.81,3.62,3.62,0,0,1,.53,2.23c0,.36-.23.44-.54.44Zm-3.27-.92h4.19c.28,0,.37-.23.39-.49a2.09,2.09,0,0,0-1.4-2A2.65,2.65,0,0,0,74.6,14.08Z" transform="translate(-8.64 -2.8)"/><path class="cls-3" d="M101.12,20.37A4,4,0,0,1,97,22a1.75,1.75,0,0,1-1.33-1.35,4.22,4.22,0,0,1-.15-1.13c0-2.15,0-4.31,0-6.47,0-.62,0-.62-.63-.63h-.44c-.18,0-.38,0-.43-.24a.47.47,0,0,1,.2-.51c.43-.33.85-.68,1.25-1a9.16,9.16,0,0,0,1.48-1.8c.12-.17.22-.42.49-.33s.18.36.18.56c0,.46,0,.91,0,1.36s0,.53.57.54h2.39c.59,0,.62,0,.63.6v.06c0,.79,0,.79-.77.79H98.15c-.52,0-.54,0-.54.51,0,2,0,3.92,0,5.87a2.45,2.45,0,0,0,.18.9,1.38,1.38,0,0,0,1.8.87,3.11,3.11,0,0,0,.78-.37C100.78,19.9,100.81,19.92,101.12,20.37Z" transform="translate(-8.64 -2.8)"/><path class="cls-3" d="M146.87,12.73a12.51,12.51,0,0,1,1.2-1.44,3,3,0,0,1,1.53-.77A1.47,1.47,0,0,1,151.34,12a1.19,1.19,0,0,1-1.63,1.12.82.82,0,0,1-.34-.16,1.2,1.2,0,0,0-1.55,0,1.7,1.7,0,0,0-.93,1.44c0,2,0,4,0,6,0,.39.23.6.66.63s.91,0,1.36,0c.3,0,.48.09.47.43s-.22.35-.47.38c-.65.06-1.29-.11-1.94-.11a28.67,28.67,0,0,0-3.47.1c-.27,0-.56,0-.57-.38s.24-.41.53-.42c1.31-.05,1.31-.06,1.31-1.38,0-1.92,0-3.84,0-5.76a1,1,0,0,0-.8-1.19,1,1,0,0,1-.24-.11c-.35-.21-.34-.5,0-.69.79-.39,1.59-.79,2.39-1.17.47-.23.65-.12.72.41a3.05,3.05,0,0,1,0,.43Z" transform="translate(-8.64 -2.8)"/><path class="cls-3" d="M114.57,12.74l.76-1a3.24,3.24,0,0,1,2-1.23,1.51,1.51,0,0,1,1.46.54A1.31,1.31,0,0,1,119,12.4c-.23.71-.8.89-1.59.67a1.08,1.08,0,0,1-.24-.12,1.66,1.66,0,0,0-2.53,1.38c0,2,0,4,0,5.92,0,.46.23.66.73.68s.9,0,1.35,0,.44.2.4.5a.29.29,0,0,1-.31.3c-.47,0-.94,0-1.41,0a16.1,16.1,0,0,0-3.47,0,6.13,6.13,0,0,1-.86,0,.33.33,0,0,1-.39-.39c0-.27.11-.41.39-.4h.54c.71,0,.91-.21.92-.91s0-1.37,0-2.06c0-1.34,0-2.68,0-4a1.25,1.25,0,0,0-.86-1.39c-.11,0-.27-.06-.3-.2s-.09-.44.21-.58c.78-.37,1.55-.77,2.34-1.15.46-.22.67-.1.69.43S114.57,12.1,114.57,12.74Z" transform="translate(-8.64 -2.8)"/></svg>