<svg xmlns="http://www.w3.org/2000/svg" height="221.627" width="628.12"><path d="M533.177 49.09a111175.96 111175.96 0 00-37.261 31.406c-1.59-6.79-3.099-13.228-4.604-19.668-.292-.025-.587-.053-.88-.077l-3.873 19.398c-8.826-6.494-17.368-12.78-25.911-19.064-.183.224-.373.448-.557.67l19.632 24.64c-6.9 1.568-13.426 3.048-19.95 4.527-.01.323-.024.643-.036.962 6.431 1.24 12.864 2.487 19.638 3.795-10.591 12.551-21.116 24.873-31.602 37.29-5.126-4.892-8.833-10.624-11.754-17.075a58.692 58.692 0 0117.674-71.06c11.378-8.671 24.083-12.795 37.763-12.625 15.05.191 28.752 5.243 40.503 15.947.248.233.54.416 1.218.935" fill="#222d62" fill-rule="evenodd"/><path d="M391.61 74.979c7.073-7.359 18.6-14.131 27.625-17.598C493.06 22.34 562.383 56.36 562.383 56.36c15.082 5.677 29.917 15.432 43.894 22.945.542.288 1.223.255 1.836.372l.21-.855c-6.804-8.485-14.504-15.84-23.075-22.058-24.977-18.123-52.819-26.208-82.239-28.054-17.804-1.113-35.557.155-53.113 4.087-20.648 4.615-40.3 11.953-57.228 26.281-5.143 4.35-10.127 8.488-14.779 13.995 0 0-5.617 5.77-1.526 10.237 2.929 3.195 9.453-2.929 9.453-2.929l5.793-5.401" fill="#222d62" fill-rule="evenodd"/><path d="M543.01 120.52c-4.48 2.625-10.202 5.805-14.157 7.986 0 0-4.276 1.168-5.421 1.246-1.305.087-12.337 1.505-19.647 7.747-7.309 6.236-17.374 8.669-17.374 8.669s-4.574 1.163-15.744.953l-.628-.016c-7.351-2.612-14.232-6.735-20.547-12.488-.255-.229-.547-.414-1.223-.93 12.614-10.631 24.807-20.907 37.26-31.407 1.592 6.789 3.098 13.227 4.604 19.665.292.026.584.055.88.08 1.264-6.32 2.526-12.64 3.872-19.4 8.828 6.494 17.37 12.78 25.912 19.066.184-.225.368-.45.559-.672-6.439-8.078-12.873-16.157-19.632-24.64 6.904-1.567 13.425-3.048 19.95-4.526.014-.323.025-.642.031-.962-6.428-1.24-12.857-2.486-19.637-3.795 10.593-12.55 20.988-24.833 31.48-37.256 5.127 4.892 8.957 10.59 11.88 17.041 8.192 18.092 6.532 37.452-2.021 52.901l-.398.739" fill="#1f59ab" fill-rule="evenodd"/><path d="M413.973 136.035c.159.082 16.242 9.386 40.496 11.954 24.254 2.57 33.476.223 33.476.223s10.066-2.43 17.374-8.667c7.31-6.241 18.342-7.66 19.649-7.748 1.144-.077 5.42-1.244 5.42-1.244 5.19-2.864 12.567-7.5 17.577-10.254 4.263-2.339 7.986-4.854 11.351-1.064 3.587 3.808 1.641 9.142-2.199 11.762 0 0-6.836 5.788-10.053 7.482-3.22 1.695-7.136 5.222-7.128 6.218.016 1.99 4.837-.723 4.837-.723 6.218-3.405 19.184-6.68 19.184-6.68 4.526-7.43 13.138-13.487 14.052-13.903.912-.412 2.126-3.358 2.126-3.358 2.428-4.096 3.557-5.216 7.094-8.302 2.41-2.1 4.996-3.628 8.146-3.607 2.452.02 4.468 1.945 4.126 4.096-.285 1.784-.553 3.701-1.345 5.243-3.288 6.403-5.707 10.462-9.312 16.652 0 0-9.779 11.806-21.392 18.362-24.712 15.183-50.863 20.179-78.208 19.24-16.544-.572-32.833-3.437-48.697-8.857-18.658-6.367-36.148-15.272-50.492-30.67-4.358-4.677-8.586-9.134-12.39-14.878 0 0-5.268-9.524-.976-6.945 0 0 13.767 13.474 37.284 25.668" fill="#1f59ab" fill-rule="evenodd"/><path d="M19.798 81.836l8.565-10.479c5.34 6.046 12.192 8.968 17.835 8.968 6.85 0 10.176-3.125 10.176-7.558 0-5.239-3.727-7.154-12.392-10.176-10.884-3.73-21.665-8.666-21.665-22.268 0-11.488 10.177-20.355 22.974-20.455 8.868 0 17.03 3.223 24.184 9.067l-8.262 10.682c-5.946-4.837-11.187-7.053-15.62-7.053-4.936 0-8.564 2.62-8.666 7.153 0 4.434 3.83 6.248 12.092 9.472 12.394 4.836 22.269 8.062 22.269 21.866 0 15.72-13.803 22.169-25.392 22.169-9.17 0-18.54-3.629-26.098-11.388M82.774 20.773h14.408v71.543H82.774V20.773M106.653 56.645c0-20.958 13.504-36.777 35.872-36.777 10.178 0 21.06 4.03 28.416 12.19l-9.976 8.667c-4.433-4.433-10.581-7.457-18.44-7.457-11.789 0-21.059 8.768-21.059 23.377 0 13.2 8.262 23.479 21.665 23.479 5.138 0 9.874-1.31 14.409-4.132V65.513h-16.021V53.32h29.825v30.835c-6.55 5.238-17.23 8.866-28.213 8.866-20.656 0-36.478-13.401-36.478-36.376M181.52 20.773h14.307v30.935h29.221V20.773h14.21v71.543h-14.21V64.303h-29.221v28.013H181.52V20.773M265.756 33.37h-19.55V20.772h53.709V33.37h-19.852v58.947h-14.307V33.37M302.23 81.836l8.566-10.479c5.339 6.046 12.19 8.968 17.833 8.968 6.852 0 10.178-3.125 10.178-7.558 0-5.239-3.728-7.154-12.394-10.176-10.881-3.73-21.664-8.666-21.664-22.268 0-11.488 10.178-20.355 22.975-20.455 8.867 0 17.03 3.223 24.183 9.067l-8.262 10.682c-5.946-4.837-11.185-7.053-15.618-7.053-4.939 0-8.567 2.62-8.667 7.153 0 4.434 3.828 6.248 12.092 9.472 12.393 4.836 22.267 8.062 22.267 21.866 0 15.72-13.803 22.169-25.392 22.169-9.17 0-18.539-3.629-26.096-11.388" fill="#222d62"/><path d="M20.533 103.361h33.913v9H30.54v13.68h19.944v9.072H30.54v19.37H20.533V103.36M97.573 128.922c0-9.648-6.624-16.704-15.407-16.704-9.217 0-15.552 7.415-15.552 16.704 0 9.287 6.335 16.703 15.552 16.703 8.783 0 15.407-7.057 15.407-16.703zm-41.472 0c0-15.193 10.584-26.209 26.065-26.209 14.975 0 25.992 10.583 25.992 26.209 0 15.553-11.017 26.207-25.992 26.207-15.48 0-26.065-11.016-26.065-26.207M131.916 128.057c6.192 0 9.36-3.167 9.36-7.847 0-4.753-3.096-7.849-8.928-7.849h-7.776v15.696zm-17.352-24.696h19.368c12.312 0 17.784 7.2 17.784 16.992 0 7.776-3.6 13.104-10.656 15.409l12.816 18.72h-12.024l-11.448-17.497h-5.832v17.498h-10.008V103.36" fill="#1f59ab"/><path d="M20.437 192.372l1.743-2.084c1.586 1.99 3.95 2.986 6.096 2.986 2.706 0 4.542-1.245 4.542-3.391 0-2.458-1.99-3.111-4.947-4.23-3.265-1.213-6.593-2.613-6.593-6.5 0-3.298 2.955-5.849 6.75-5.849 2.457 0 4.884.903 6.967 2.583l-1.648 2.145c-1.774-1.463-3.671-2.24-5.32-2.24-2.083 0-3.919 1.12-3.95 3.236-.03 2.115 1.96 2.892 4.728 3.95 3.702 1.462 6.843 2.457 6.843 6.594 0 4.044-3.546 6.221-7.403 6.221-2.768 0-5.599-1.058-7.808-3.421M40.068 186.741h9.3c-.373-2.488-1.99-4.167-4.478-4.167-2.427 0-4.356 1.586-4.822 4.167zm11.758 2.052h-11.82c.342 2.831 2.333 4.698 5.193 4.698 2.024 0 3.454-.871 4.387-2.022l1.773 1.494c-1.305 1.68-3.204 2.83-6.252 2.83-4.479 0-7.652-3.112-7.652-7.745 0-4.573 3.142-7.776 7.465-7.776 4.138 0 6.968 3.172 6.968 7.496 0 .404-.062.84-.062 1.025M54.658 180.457h2.52v15.15h-2.52zm-.56-4.57c0-.996.809-1.806 1.836-1.806 1.026 0 1.836.81 1.836 1.806 0 .994-.81 1.802-1.836 1.802-1.027 0-1.836-.808-1.836-1.802M59.73 193.77l8.803-11.04-.031-.094h-8.305v-2.179h11.789v1.806l-8.834 11.134.03.031h8.804v2.179H59.73v-1.837M75.471 186.741h9.301c-.374-2.488-1.99-4.167-4.479-4.167-2.425 0-4.356 1.586-4.822 4.167zm11.759 2.052H75.41c.342 2.831 2.333 4.698 5.194 4.698 2.023 0 3.452-.871 4.386-2.022l1.774 1.494c-1.308 1.68-3.205 2.83-6.254 2.83-4.479 0-7.652-3.112-7.652-7.745 0-4.573 3.143-7.776 7.465-7.776 4.137 0 6.97 3.172 6.97 7.496 0 .404-.063.84-.063 1.025M97.745 173.521h2.707v22.086h-2.707V173.52M104.59 180.457h2.52v2.739h.031c1.182-1.834 3.173-2.924 5.506-2.924 3.266 0 5.443 2.021 5.443 6.345v8.99h-2.52v-8.274c0-3.546-1.524-4.76-3.733-4.76-2.862 0-4.728 2.054-4.728 5.475v7.559h-2.519v-15.15M133.333 188.141c0-3.11-2.082-5.567-5.13-5.567-2.894 0-5.226 2.209-5.226 5.567 0 3.048 2.115 5.35 5.194 5.35 2.86 0 5.162-2.146 5.162-5.35zm-12.938 0c0-4.478 3.14-7.869 7.402-7.869 2.302 0 4.262 1.057 5.413 2.892h.031v-10.45h2.519v22.893h-2.427v-2.8h-.03c-1.089 1.836-3.018 2.986-5.474 2.986-4.2 0-7.434-3.05-7.434-7.652M140.988 186.741h9.301c-.373-2.488-1.99-4.167-4.478-4.167-2.428 0-4.356 1.586-4.823 4.167zm11.759 2.052h-11.82c.341 2.831 2.333 4.698 5.193 4.698 2.024 0 3.453-.871 4.387-2.022l1.773 1.494c-1.305 1.68-3.204 2.83-6.252 2.83-4.48 0-7.653-3.112-7.653-7.745 0-4.573 3.144-7.776 7.466-7.776 4.138 0 6.968 3.172 6.968 7.496 0 .404-.062.84-.062 1.025M168.147 188.141c0-3.358-2.332-5.567-5.195-5.567-3.079 0-5.164 2.457-5.164 5.567 0 3.204 2.303 5.35 5.195 5.35 3.049 0 5.164-2.302 5.164-5.35zm-12.754-7.684h2.519v2.676h.03c1.153-1.804 3.08-2.861 5.382-2.861 4.293 0 7.373 3.39 7.373 7.87 0 4.602-3.205 7.651-7.373 7.651-2.396 0-4.26-1.058-5.381-2.8h-.031v8.772h-2.519v-21.308M175.024 186.741h9.3c-.373-2.488-1.99-4.167-4.479-4.167-2.426 0-4.356 1.586-4.821 4.167zm11.757 2.052h-11.82c.343 2.831 2.334 4.698 5.194 4.698 2.024 0 3.453-.871 4.386-2.022l1.775 1.494c-1.307 1.68-3.205 2.83-6.253 2.83-4.479 0-7.652-3.112-7.652-7.745 0-4.573 3.141-7.776 7.464-7.776 4.138 0 6.968 3.172 6.968 7.496 0 .404-.062.84-.062 1.025M189.428 180.457h2.519v2.739h.032c1.181-1.834 3.172-2.924 5.505-2.924 3.265 0 5.444 2.021 5.444 6.345v8.99h-2.52v-8.274c0-3.546-1.525-4.76-3.733-4.76-2.862 0-4.728 2.054-4.728 5.475v7.559h-2.519v-15.15M218.17 188.141c0-3.11-2.083-5.567-5.131-5.567-2.894 0-5.226 2.209-5.226 5.567 0 3.048 2.115 5.35 5.195 5.35 2.861 0 5.163-2.146 5.163-5.35zm-12.938 0c0-4.478 3.14-7.869 7.401-7.869 2.303 0 4.263 1.057 5.412 2.892h.032v-10.45h2.519v22.893h-2.425v-2.8h-.03c-1.09 1.836-3.02 2.986-5.476 2.986-4.198 0-7.433-3.05-7.433-7.652M225.825 186.741h9.303c-.375-2.488-1.99-4.167-4.479-4.167-2.428 0-4.357 1.586-4.824 4.167zm11.76 2.052h-11.822c.342 2.831 2.333 4.698 5.196 4.698 2.022 0 3.453-.871 4.386-2.022l1.772 1.494c-1.306 1.68-3.202 2.83-6.25 2.83-4.48 0-7.654-3.112-7.654-7.745 0-4.573 3.142-7.776 7.466-7.776 4.137 0 6.968 3.172 6.968 7.496 0 .404-.062.84-.062 1.025M240.23 180.457h2.52v2.739h.029c1.184-1.834 3.173-2.924 5.508-2.924 3.265 0 5.441 2.021 5.441 6.345v8.99h-2.52v-8.274c0-3.546-1.523-4.76-3.73-4.76-2.862 0-4.729 2.054-4.729 5.475v7.559h-2.52v-15.15M256.064 188.048c0-4.573 3.143-7.776 7.652-7.776 2.27 0 4.605.933 6.099 2.705l-1.712 1.526a5.58 5.58 0 00-4.26-1.93c-3.112 0-5.195 2.272-5.195 5.475 0 3.235 2.083 5.443 5.161 5.443 1.806 0 3.392-.778 4.326-1.927l1.741 1.586c-1.276 1.524-3.296 2.643-6.252 2.643-4.417 0-7.56-3.142-7.56-7.745M273.767 186.741h9.3c-.372-2.488-1.991-4.167-4.479-4.167-2.428 0-4.355 1.586-4.821 4.167zm11.757 2.052h-11.819c.342 2.831 2.332 4.698 5.192 4.698 2.024 0 3.454-.871 4.387-2.022l1.773 1.494c-1.305 1.68-3.204 2.83-6.252 2.83-4.48 0-7.653-3.112-7.653-7.745 0-4.573 3.144-7.776 7.467-7.776 4.137 0 6.968 3.172 6.968 7.496 0 .404-.063.84-.063 1.025M295.543 173.521h4.294l9.922 14.9h.062v-14.9h4.324v22.086h-4.386l-9.799-14.588h-.061v14.588h-4.356V173.52M328.643 188.016c0-2.488-1.68-4.199-3.92-4.199-2.363 0-3.95 1.806-3.95 4.2 0 2.364 1.618 4.2 3.95 4.2 2.178 0 3.92-1.712 3.92-4.2zm-12.006 0c0-4.541 3.235-7.837 8.086-7.837 4.728 0 8.057 3.173 8.057 7.837 0 4.635-3.33 7.87-8.057 7.87-4.851 0-8.086-3.328-8.086-7.87M332.564 180.396h4.107l2.924 9.3h.032l2.705-9.3h3.265l2.738 9.3h.062l2.894-9.3h4.074l-5.164 15.21h-3.514l-2.738-9.237h-.03l-2.708 9.238h-3.514l-5.133-15.211" fill="#918f90"/><text style="-inkscape-font-specification:MyriadPro-Regular" transform="matrix(1.33333 0 0 1.33333 357.392 189.992)" font-weight="400" font-size="10.37" font-family="MyriadPro" fill="#918f90"><tspan y="0" x="0">™</tspan></text><path d="M172.748 103.361h10.224v22.104h20.88v-22.104h10.152v51.122h-10.152v-20.018h-20.88v20.018h-10.224V103.36M261.883 128.922c0-9.648-6.623-16.704-15.407-16.704-9.216 0-15.552 7.415-15.552 16.704 0 9.287 6.336 16.703 15.552 16.703 8.784 0 15.407-7.057 15.407-16.703zm-41.472 0c0-15.193 10.584-26.209 26.065-26.209 14.975 0 25.992 10.583 25.992 26.209 0 15.553-11.017 26.207-25.992 26.207-15.481 0-26.065-11.016-26.065-26.207M295.721 128.057c6.336 0 9.362-3.167 9.362-7.847 0-4.753-3.026-7.849-8.858-7.849h-7.344v15.696zm-16.848-24.696h18.938c12.384 0 17.784 7.2 17.784 16.992 0 11.232-7.56 16.632-18.792 16.632h-7.922v17.498h-10.008V103.36M321.065 103.361h32.69v9h-22.682v12.313h18.144v8.855h-18.144v11.954h24.192v9h-34.2V103.36" fill="#1f59ab"/><text style="-inkscape-font-specification:MyriadPro-Regular" transform="matrix(1.33333 0 0 1.33333 356.543 115.75)" font-weight="400" font-size="14" font-family="MyriadPro" fill="#1f59ab"><tspan y="0" x="0">™</tspan></text></svg>